<svg width="230" height="100" viewBox="0 0 230 100" fill="none" xmlns="http://www.w3.org/2000/svg">
<rect width="230" height="100" fill="#004AAD"/>
<rect x="22.5" y="19.5" width="185" height="61" stroke="white"/>
<path d="M57.772 37.808C59.428 37.808 60.94 38.096 62.308 38.672C63.7 39.224 64.888 40.028 65.872 41.084C66.88 42.116 67.66 43.364 68.212 44.828C68.764 46.268 69.04 47.864 69.04 49.616C69.04 51.488 68.764 53.192 68.212 54.728C67.684 56.24 66.928 57.536 65.944 58.616C64.96 59.696 63.772 60.536 62.38 61.136C60.988 61.712 59.452 62 57.772 62H47.152V61.424H50.32V38.384H47.152V37.808H57.772ZM65.08 48.716C65.08 46.772 64.876 45.14 64.468 43.82C64.084 42.5 63.544 41.444 62.848 40.652C62.176 39.836 61.396 39.26 60.508 38.924C59.62 38.564 58.684 38.384 57.7 38.384H53.812V61.424H57.7C58.708 61.424 59.656 61.256 60.544 60.92C61.432 60.584 62.212 60.008 62.884 59.192C63.556 58.352 64.084 57.236 64.468 55.844C64.876 54.428 65.08 52.652 65.08 50.516V48.716ZM81.0679 38.384H77.9719V61.424H81.0679V62H71.3839V61.424H74.4799V38.384H71.3839V37.808H81.0679V38.384ZM94.9808 37.412C96.1088 37.412 97.1648 37.592 98.1488 37.952C99.1568 38.312 100.009 38.804 100.705 39.428L102.253 37.88C102.349 37.784 102.421 37.712 102.469 37.664C102.541 37.616 102.637 37.592 102.757 37.592C102.949 37.592 103.045 37.724 103.045 37.988V44.792C103.045 45.008 102.973 45.116 102.829 45.116C102.685 45.116 102.577 45.008 102.505 44.792C101.737 42.344 100.729 40.616 99.4808 39.608C98.2328 38.576 96.7328 38.06 94.9808 38.06C93.9968 38.06 93.0968 38.252 92.2808 38.636C91.4888 38.996 90.7928 39.572 90.1928 40.364C89.6168 41.132 89.1608 42.128 88.8248 43.352C88.5128 44.576 88.3568 46.04 88.3568 47.744V52.172C88.3568 55.436 88.9328 57.896 90.0848 59.552C91.2368 61.208 92.8568 62.036 94.9448 62.036C95.9288 62.036 96.7208 61.892 97.3208 61.604C97.9448 61.292 98.4248 60.908 98.7608 60.452C99.0968 59.972 99.3248 59.444 99.4448 58.868C99.5648 58.292 99.6248 57.716 99.6248 57.14V53.756H95.7728V53.18H106.465V53.756H103.333V54.98C103.333 56.324 103.105 57.488 102.649 58.472C102.217 59.432 101.605 60.224 100.813 60.848C100.045 61.472 99.1448 61.928 98.1128 62.216C97.1048 62.528 96.0248 62.684 94.8728 62.684C93.4328 62.684 92.0528 62.348 90.7328 61.676C89.4128 61.004 88.2488 60.092 87.2408 58.94C86.2328 57.788 85.4288 56.444 84.8288 54.908C84.2288 53.372 83.9288 51.752 83.9288 50.048C83.9288 48.344 84.2168 46.724 84.7928 45.188C85.3928 43.652 86.1848 42.308 87.1688 41.156C88.1768 40.004 89.3528 39.092 90.6968 38.42C92.0408 37.748 93.4688 37.412 94.9808 37.412ZM117.244 38.384H114.148V61.424H117.244V62H107.56V61.424H110.656V38.384H107.56V37.808H117.244V38.384ZM131.805 61.424H134.901V62H125.217V61.424H128.313V38.384H125.217C124.113 38.384 123.141 38.948 122.301 40.076C121.485 41.204 120.945 42.74 120.681 44.684H119.925L120.465 38.42C120.489 38.012 120.729 37.808 121.185 37.808H138.933C139.389 37.808 139.629 38.012 139.653 38.42L140.193 44.684H139.437C139.173 42.74 138.621 41.204 137.781 40.076C136.965 38.948 136.005 38.384 134.901 38.384H131.805V61.424ZM139.112 61.424H142.208L150.092 37.484H150.524L158.408 61.424H161.54V62H150.992V61.424H154.7L152.36 54.476H145.124L142.856 61.424H147.104V62H139.112V61.424ZM148.724 43.604L145.34 53.9H152.18L148.724 43.604ZM182.101 55.34C182.197 54.836 182.329 54.584 182.497 54.584C182.689 54.584 182.785 54.872 182.785 55.448V60.848C182.785 61.616 182.437 62 181.741 62H163.201V61.424H166.297V38.384H163.201V37.808H173.209V38.384H169.789V61.424H177.169C178.009 61.424 178.705 61.28 179.257 60.992C179.809 60.704 180.265 60.296 180.625 59.768C180.985 59.216 181.273 58.568 181.489 57.824C181.705 57.08 181.909 56.252 182.101 55.34Z" fill="white"/>
<rect x="92" y="74" width="46" height="14" rx="5" fill="white"/>
<path d="M98.8958 83.5H97.8388L99.7218 78.159H100.828L102.711 83.5H101.654L101.29 82.401H99.2528L98.8958 83.5ZM99.5398 81.519H101.01L100.457 79.846C100.373 79.5753 100.331 79.349 100.331 79.167H100.219C100.219 79.335 100.175 79.5613 100.086 79.846L99.5398 81.519ZM106.463 83.598C106.09 83.598 105.733 83.5373 105.392 83.416C105.051 83.2947 104.762 83.0987 104.524 82.828C104.291 82.5527 104.153 82.198 104.111 81.764H105.154C105.233 82.114 105.392 82.3637 105.63 82.513C105.868 82.6623 106.148 82.737 106.47 82.737C106.764 82.737 107 82.6763 107.177 82.555C107.354 82.429 107.443 82.2447 107.443 82.002C107.443 81.8293 107.387 81.6917 107.275 81.589C107.163 81.4817 107.021 81.4023 106.848 81.351C106.68 81.295 106.449 81.2343 106.155 81.169C105.754 81.0803 105.429 80.9893 105.182 80.896C104.939 80.8027 104.729 80.6557 104.552 80.455C104.375 80.2543 104.286 79.979 104.286 79.629C104.286 79.293 104.368 79.0083 104.531 78.775C104.694 78.537 104.918 78.3597 105.203 78.243C105.488 78.1217 105.812 78.061 106.176 78.061C106.531 78.061 106.86 78.124 107.163 78.25C107.466 78.3713 107.721 78.5603 107.926 78.817C108.131 79.069 108.262 79.3793 108.318 79.748H107.289C107.224 79.4727 107.088 79.2673 106.883 79.132C106.682 78.992 106.44 78.922 106.155 78.922C105.894 78.922 105.684 78.978 105.525 79.09C105.366 79.1973 105.287 79.349 105.287 79.545C105.287 79.699 105.341 79.8227 105.448 79.916C105.555 80.0093 105.688 80.0817 105.847 80.133C106.006 80.1843 106.227 80.2427 106.512 80.308C106.918 80.3967 107.249 80.49 107.506 80.588C107.767 80.686 107.991 80.8447 108.178 81.064C108.365 81.2833 108.458 81.5797 108.458 81.953C108.458 82.4617 108.281 82.863 107.926 83.157C107.576 83.451 107.088 83.598 106.463 83.598ZM112.494 83.5H111.486V79.062H109.855V78.159H114.118V79.062H112.494V83.5ZM115.79 83.5V78.159H118.093C118.616 78.159 119.029 78.2897 119.332 78.551C119.635 78.8077 119.787 79.202 119.787 79.734C119.787 79.9393 119.759 80.133 119.703 80.315C119.647 80.4923 119.568 80.644 119.465 80.77C119.292 80.98 119.085 81.0803 118.842 81.071L118.807 81.162C118.868 81.176 118.914 81.2063 118.947 81.253C118.98 81.295 119.017 81.3627 119.059 81.456L119.906 83.5H118.842L117.995 81.358H116.798V83.5H115.79ZM117.953 80.483C118.224 80.483 118.429 80.4223 118.569 80.301C118.714 80.1797 118.786 80.0023 118.786 79.769C118.786 79.5403 118.714 79.3653 118.569 79.244C118.424 79.1227 118.219 79.062 117.953 79.062H116.798V80.483H117.953ZM122.366 83.5H121.309L123.192 78.159H124.298L126.181 83.5H125.124L124.76 82.401H122.723L122.366 83.5ZM123.01 81.519H124.48L123.927 79.846C123.843 79.5753 123.801 79.349 123.801 79.167H123.689C123.689 79.335 123.645 79.5613 123.556 79.846L123.01 81.519ZM129.933 83.598C129.56 83.598 129.203 83.5373 128.862 83.416C128.521 83.2947 128.232 83.0987 127.994 82.828C127.761 82.5527 127.623 82.198 127.581 81.764H128.624C128.703 82.114 128.862 82.3637 129.1 82.513C129.338 82.6623 129.618 82.737 129.94 82.737C130.234 82.737 130.47 82.6763 130.647 82.555C130.824 82.429 130.913 82.2447 130.913 82.002C130.913 81.8293 130.857 81.6917 130.745 81.589C130.633 81.4817 130.491 81.4023 130.318 81.351C130.15 81.295 129.919 81.2343 129.625 81.169C129.224 81.0803 128.899 80.9893 128.652 80.896C128.409 80.8027 128.199 80.6557 128.022 80.455C127.845 80.2543 127.756 79.979 127.756 79.629C127.756 79.293 127.838 79.0083 128.001 78.775C128.164 78.537 128.388 78.3597 128.673 78.243C128.958 78.1217 129.282 78.061 129.646 78.061C130.001 78.061 130.33 78.124 130.633 78.25C130.936 78.3713 131.191 78.5603 131.396 78.817C131.601 79.069 131.732 79.3793 131.788 79.748H130.759C130.694 79.4727 130.558 79.2673 130.353 79.132C130.152 78.992 129.91 78.922 129.625 78.922C129.364 78.922 129.154 78.978 128.995 79.09C128.836 79.1973 128.757 79.349 128.757 79.545C128.757 79.699 128.811 79.8227 128.918 79.916C129.025 80.0093 129.158 80.0817 129.317 80.133C129.476 80.1843 129.697 80.2427 129.982 80.308C130.388 80.3967 130.719 80.49 130.976 80.588C131.237 80.686 131.461 80.8447 131.648 81.064C131.835 81.2833 131.928 81.5797 131.928 81.953C131.928 82.4617 131.751 82.863 131.396 83.157C131.046 83.451 130.558 83.598 129.933 83.598Z" fill="#004AAD"/>
</svg>
