<svg width="200" height="67" viewBox="0 0 200 67" fill="none" xmlns="http://www.w3.org/2000/svg">
<rect x="0.5" y="0.5" width="199" height="61" fill="#004AAD"/>
<rect x="0.5" y="0.5" width="199" height="61" stroke="white"/>
<path d="M42.772 19.808C44.428 19.808 45.94 20.096 47.308 20.672C48.7 21.224 49.888 22.028 50.872 23.084C51.88 24.116 52.66 25.364 53.212 26.828C53.764 28.268 54.04 29.864 54.04 31.616C54.04 33.488 53.764 35.192 53.212 36.728C52.684 38.24 51.928 39.536 50.944 40.616C49.96 41.696 48.772 42.536 47.38 43.136C45.988 43.712 44.452 44 42.772 44H32.152V43.424H35.32V20.384H32.152V19.808H42.772ZM50.08 30.716C50.08 28.772 49.876 27.14 49.468 25.82C49.084 24.5 48.544 23.444 47.848 22.652C47.176 21.836 46.396 21.26 45.508 20.924C44.62 20.564 43.684 20.384 42.7 20.384H38.812V43.424H42.7C43.708 43.424 44.656 43.256 45.544 42.92C46.432 42.584 47.212 42.008 47.884 41.192C48.556 40.352 49.084 39.236 49.468 37.844C49.876 36.428 50.08 34.652 50.08 32.516V30.716ZM66.0679 20.384H62.9719V43.424H66.0679V44H56.3839V43.424H59.4799V20.384H56.3839V19.808H66.0679V20.384ZM79.9808 19.412C81.1088 19.412 82.1648 19.592 83.1488 19.952C84.1568 20.312 85.0088 20.804 85.7048 21.428L87.2528 19.88C87.3488 19.784 87.4208 19.712 87.4688 19.664C87.5408 19.616 87.6368 19.592 87.7568 19.592C87.9488 19.592 88.0448 19.724 88.0448 19.988V26.792C88.0448 27.008 87.9728 27.116 87.8288 27.116C87.6848 27.116 87.5768 27.008 87.5048 26.792C86.7368 24.344 85.7288 22.616 84.4808 21.608C83.2328 20.576 81.7328 20.06 79.9808 20.06C78.9968 20.06 78.0968 20.252 77.2808 20.636C76.4888 20.996 75.7928 21.572 75.1928 22.364C74.6168 23.132 74.1608 24.128 73.8248 25.352C73.5128 26.576 73.3568 28.04 73.3568 29.744V34.172C73.3568 37.436 73.9328 39.896 75.0848 41.552C76.2368 43.208 77.8568 44.036 79.9448 44.036C80.9288 44.036 81.7208 43.892 82.3208 43.604C82.9448 43.292 83.4248 42.908 83.7608 42.452C84.0968 41.972 84.3248 41.444 84.4448 40.868C84.5648 40.292 84.6248 39.716 84.6248 39.14V35.756H80.7728V35.18H91.4648V35.756H88.3328V36.98C88.3328 38.324 88.1048 39.488 87.6488 40.472C87.2168 41.432 86.6048 42.224 85.8128 42.848C85.0448 43.472 84.1448 43.928 83.1128 44.216C82.1048 44.528 81.0248 44.684 79.8728 44.684C78.4328 44.684 77.0528 44.348 75.7328 43.676C74.4128 43.004 73.2488 42.092 72.2408 40.94C71.2328 39.788 70.4288 38.444 69.8288 36.908C69.2288 35.372 68.9288 33.752 68.9288 32.048C68.9288 30.344 69.2168 28.724 69.7928 27.188C70.3928 25.652 71.1848 24.308 72.1688 23.156C73.1768 22.004 74.3528 21.092 75.6968 20.42C77.0408 19.748 78.4688 19.412 79.9808 19.412ZM102.244 20.384H99.1477V43.424H102.244V44H92.5597V43.424H95.6557V20.384H92.5597V19.808H102.244V20.384ZM116.805 43.424H119.901V44H110.217V43.424H113.313V20.384H110.217C109.113 20.384 108.141 20.948 107.301 22.076C106.485 23.204 105.945 24.74 105.681 26.684H104.925L105.465 20.42C105.489 20.012 105.729 19.808 106.185 19.808H123.933C124.389 19.808 124.629 20.012 124.653 20.42L125.193 26.684H124.437C124.173 24.74 123.621 23.204 122.781 22.076C121.965 20.948 121.005 20.384 119.901 20.384H116.805V43.424ZM124.112 43.424H127.208L135.092 19.484H135.524L143.408 43.424H146.54V44H135.992V43.424H139.7L137.36 36.476H130.124L127.856 43.424H132.104V44H124.112V43.424ZM133.724 25.604L130.34 35.9H137.18L133.724 25.604ZM167.101 37.34C167.197 36.836 167.329 36.584 167.497 36.584C167.689 36.584 167.785 36.872 167.785 37.448V42.848C167.785 43.616 167.437 44 166.741 44H148.201V43.424H151.297V20.384H148.201V19.808H158.209V20.384H154.789V43.424H162.169C163.009 43.424 163.705 43.28 164.257 42.992C164.809 42.704 165.265 42.296 165.625 41.768C165.985 41.216 166.273 40.568 166.489 39.824C166.705 39.08 166.909 38.252 167.101 37.34Z" fill="white"/>
<rect x="77" y="53" width="46" height="14" rx="5" fill="white"/>
<path d="M83.8958 62.5H82.8388L84.7218 57.159H85.8278L87.7108 62.5H86.6538L86.2898 61.401H84.2528L83.8958 62.5ZM84.5398 60.519H86.0098L85.4568 58.846C85.3728 58.5753 85.3308 58.349 85.3308 58.167H85.2188C85.2188 58.335 85.1745 58.5613 85.0858 58.846L84.5398 60.519ZM91.4629 62.598C91.0896 62.598 90.7326 62.5373 90.3919 62.416C90.0512 62.2947 89.7619 62.0987 89.5239 61.828C89.2906 61.5527 89.1529 61.198 89.1109 60.764H90.1539C90.2332 61.114 90.3919 61.3637 90.6299 61.513C90.8679 61.6623 91.1479 61.737 91.4699 61.737C91.7639 61.737 91.9996 61.6763 92.1769 61.555C92.3542 61.429 92.4429 61.2447 92.4429 61.002C92.4429 60.8293 92.3869 60.6917 92.2749 60.589C92.1629 60.4817 92.0206 60.4023 91.8479 60.351C91.6799 60.295 91.4489 60.2343 91.1549 60.169C90.7536 60.0803 90.4292 59.9893 90.1819 59.896C89.9392 59.8027 89.7292 59.6557 89.5519 59.455C89.3746 59.2543 89.2859 58.979 89.2859 58.629C89.2859 58.293 89.3676 58.0083 89.5309 57.775C89.6942 57.537 89.9182 57.3597 90.2029 57.243C90.4876 57.1217 90.8119 57.061 91.1759 57.061C91.5306 57.061 91.8596 57.124 92.1629 57.25C92.4662 57.3713 92.7206 57.5603 92.9259 57.817C93.1312 58.069 93.2619 58.3793 93.3179 58.748H92.2889C92.2236 58.4727 92.0882 58.2673 91.8829 58.132C91.6822 57.992 91.4396 57.922 91.1549 57.922C90.8936 57.922 90.6836 57.978 90.5249 58.09C90.3662 58.1973 90.2869 58.349 90.2869 58.545C90.2869 58.699 90.3406 58.8227 90.4479 58.916C90.5552 59.0093 90.6882 59.0817 90.8469 59.133C91.0056 59.1843 91.2272 59.2427 91.5119 59.308C91.9179 59.3967 92.2492 59.49 92.5059 59.588C92.7672 59.686 92.9912 59.8447 93.1779 60.064C93.3646 60.2833 93.4579 60.5797 93.4579 60.953C93.4579 61.4617 93.2806 61.863 92.9259 62.157C92.5759 62.451 92.0882 62.598 91.4629 62.598ZM97.4937 62.5H96.4857V58.062H94.8547V57.159H99.1177V58.062H97.4937V62.5ZM100.79 62.5V57.159H103.093C103.616 57.159 104.029 57.2897 104.332 57.551C104.635 57.8077 104.787 58.202 104.787 58.734C104.787 58.9393 104.759 59.133 104.703 59.315C104.647 59.4923 104.568 59.644 104.465 59.77C104.292 59.98 104.085 60.0803 103.842 60.071L103.807 60.162C103.868 60.176 103.914 60.2063 103.947 60.253C103.98 60.295 104.017 60.3627 104.059 60.456L104.906 62.5H103.842L102.995 60.358H101.798V62.5H100.79ZM102.953 59.483C103.224 59.483 103.429 59.4223 103.569 59.301C103.714 59.1797 103.786 59.0023 103.786 58.769C103.786 58.5403 103.714 58.3653 103.569 58.244C103.424 58.1227 103.219 58.062 102.953 58.062H101.798V59.483H102.953ZM107.366 62.5H106.309L108.192 57.159H109.298L111.181 62.5H110.124L109.76 61.401H107.723L107.366 62.5ZM108.01 60.519H109.48L108.927 58.846C108.843 58.5753 108.801 58.349 108.801 58.167H108.689C108.689 58.335 108.645 58.5613 108.556 58.846L108.01 60.519ZM114.933 62.598C114.56 62.598 114.203 62.5373 113.862 62.416C113.521 62.2947 113.232 62.0987 112.994 61.828C112.761 61.5527 112.623 61.198 112.581 60.764H113.624C113.703 61.114 113.862 61.3637 114.1 61.513C114.338 61.6623 114.618 61.737 114.94 61.737C115.234 61.737 115.47 61.6763 115.647 61.555C115.824 61.429 115.913 61.2447 115.913 61.002C115.913 60.8293 115.857 60.6917 115.745 60.589C115.633 60.4817 115.491 60.4023 115.318 60.351C115.15 60.295 114.919 60.2343 114.625 60.169C114.224 60.0803 113.899 59.9893 113.652 59.896C113.409 59.8027 113.199 59.6557 113.022 59.455C112.845 59.2543 112.756 58.979 112.756 58.629C112.756 58.293 112.838 58.0083 113.001 57.775C113.164 57.537 113.388 57.3597 113.673 57.243C113.958 57.1217 114.282 57.061 114.646 57.061C115.001 57.061 115.33 57.124 115.633 57.25C115.936 57.3713 116.191 57.5603 116.396 57.817C116.601 58.069 116.732 58.3793 116.788 58.748H115.759C115.694 58.4727 115.558 58.2673 115.353 58.132C115.152 57.992 114.91 57.922 114.625 57.922C114.364 57.922 114.154 57.978 113.995 58.09C113.836 58.1973 113.757 58.349 113.757 58.545C113.757 58.699 113.811 58.8227 113.918 58.916C114.025 59.0093 114.158 59.0817 114.317 59.133C114.476 59.1843 114.697 59.2427 114.982 59.308C115.388 59.3967 115.719 59.49 115.976 59.588C116.237 59.686 116.461 59.8447 116.648 60.064C116.835 60.2833 116.928 60.5797 116.928 60.953C116.928 61.4617 116.751 61.863 116.396 62.157C116.046 62.451 115.558 62.598 114.933 62.598Z" fill="#004AAD"/>
</svg>
